<svg width="2048" height="2048" xmlns="http://www.w3.org/2000/svg" xmlns:svg="http://www.w3.org/2000/svg" clip-rule="evenodd" fill-rule="evenodd" version="1.1" xml:space="preserve">
 <g class="layer">
  <title>Layer 1</title>
  <path d="m1070.68,22c242.72,12.45 460.55,108.91 628.58,261.39l-628.59,-261.39l0.01,0z"/>
  <path d="m1764.61,348.74c152.48,168.04 248.94,385.86 261.39,628.58l-93.35,0c-9.34,-217.83 -96.47,-413.87 -233.39,-563.24l65.35,-65.35l0,0.01z" id="svg_2"/>
  <path d="m2026,1070.68c-12.45,242.72 -108.91,460.55 -261.39,628.58l261.39,-628.59l0,0.01z"/>
  <path d="m1699.26,1764.61c-168.04,152.48 -385.86,248.94 -628.58,261.39l628.59,-261.39l-0.01,0z"/>
  <path d="m977.32,2026c-242.72,-12.45 -460.55,-108.91 -628.58,-261.39l628.59,261.39l-0.01,0z"/>
  <path d="m283.39,1699.26c-152.48,-168.04 -248.94,-385.86 -261.39,-628.58l261.39,628.59l0,-0.01z"/>
  <path d="m22,977.32c12.45,-242.72 108.91,-460.55 261.39,-628.58l-261.39,628.59l0,-0.01z"/>
  <path d="m348.74,283.39c168.04,-152.48 385.86,-248.94 628.58,-261.39l-628.59,261.39l0.01,0z"/>
 </g>
</svg>