<svg width="2048" height="2048" xmlns="http://www.w3.org/2000/svg" xmlns:svg="http://www.w3.org/2000/svg" data-name="Home energy by Yosua Bungara from Noun Project">
 <g class="layer">
  <title>Layer 1</title>
  <path class="cls-1" d="m2007.64,914.78l-960.96,-760.63s-1.85,-0.73 -2.97,-1.48c-2.21,-1.48 -4.43,-2.58 -6.66,-3.33c-2.21,-0.73 -4.06,-1.48 -6.28,-2.21c-2.21,-0.37 -4.81,-0.37 -7.03,-0.37c-2.21,0 -4.43,0 -6.66,0.37c-2.21,0.37 -4.43,1.12 -6.66,2.21c-2.21,0.73 -4.43,1.85 -6.66,3.33c-0.73,0.73 -1.85,0.73 -2.97,1.48l-960.96,760.63c-15.9,12.57 -18.85,35.84 -5.91,51.75c7.39,9.24 18.12,14.05 29.2,14.05c8.12,0 16.27,-2.58 22.91,-8.12l180.36,-142.67l0,1034.49c0,20.33 16.63,36.96 36.96,36.96l1441.41,0c20.33,0 36.96,-16.63 36.96,-36.96l0,-1034.49l180.36,142.67c6.66,5.54 14.78,8.12 22.91,8.12c10.72,0 21.81,-4.81 29.2,-14.05c12.57,-15.9 9.97,-39.18 -5.91,-51.75l-0.73,0l0.06,0l0.03,0zm-300.12,912.91l-1367.51,0l0,-1056.3l683.75,-541.46l683.75,541.46l0,1056.3l0.02,0l-0.01,0z" id="svg_1"/>
  <path clip-rule="evenodd" d="m194,505.73c-69.05,0 -125,-45.8 -125,-102.25c0,-25.85 11.9,-49.45 31.25,-67.45l0,-213.6c0,-42.35 42,-76.7 93.75,-76.7c51.75,0 93.75,34.35 93.75,76.7l0,213.6c19.4,18 31.25,41.6 31.25,67.45c0,56.45 -55.95,102.25 -125,102.25zm31.25,-146.25l0,-54.85l0,-131.1l0,-51.1c0,-14.15 -14,-25.6 -31.25,-25.6c-17.25,0 -31.25,11.45 -31.25,25.6l0,51.1l0,131.1l0,54.85c-18.6,8.85 -31.25,25.15 -31.25,44c0,28.25 28,51.1 62.5,51.1s62.5,-22.85 62.5,-51.1c0,-18.85 -12.65,-35.15 -31.25,-44zm-31.25,82.35c-25.85,0 -46.85,-17.2 -46.85,-38.35c0,-16.65 13.1,-30.7 31.25,-36l0,-130.9l31.25,0l0,130.9c18.15,5.3 31.25,19.35 31.25,36c0,21.15 -21,38.35 -46.9,38.35z" fill="black" fill-rule="evenodd" id="svg_2"/>
  <path d="m426.64,1741.22c-0.58,0.52 -0.23,-0.11 -0.13,-0.86c0.1,-0.75 0.1,-0.75 0.21,-1.51c0.1,-0.75 0.31,-2.26 0.76,-3.65c0.31,-2.26 0.86,-4.41 1.05,-7.53c0.5,-5.38 0.99,-10.76 1.02,-16.36c0.36,-6.24 0.26,-12.71 0.15,-19.18c-0.06,-3.23 -0.24,-7.34 -0.29,-10.57c-0.16,-2.48 -0.22,-5.71 -0.61,-8.31c-1,-10.9 -2.71,-22.13 -5,-32.82c-1.26,-5.41 -2.63,-10.05 -3.89,-15.46l-2.34,-6.71l-1.1,-2.92l-0.37,-0.97l-0.6,-1.08l-0.5,-1.85l-0.5,-1.85c-2.6,-8.45 -4.26,-16.43 -6.15,-24.54c-1.79,-8.86 -2.99,-18.24 -4.45,-27.74c-2.32,-19.54 -3.85,-41.1 -3.3,-64.9c0.2,-23.17 2.01,-48.77 5.83,-72.65c1.91,-11.94 4.41,-24.4 7.15,-35.13c1.54,-5.68 2.99,-10.62 4.53,-16.32c0.89,-2.78 1.68,-4.82 2.57,-7.61l1.7,-3.2l1.92,-4.71c4.15,-11.69 9.97,-13.77 13.17,-4.24c2.97,9.42 2.08,26.63 -2.17,39.08c0.34,-0.64 0,0 0.23,0.11c0,0 -0.1,0.75 -0.1,0.75l-0.31,2.26c-0.21,1.51 -0.42,3.01 -0.73,5.27c-0.42,3.01 -0.94,6.78 -1.23,10.65c-0.71,6.89 -1.18,13.88 -1.54,20.13c-0.6,13.35 -0.62,26.18 0.06,39.32c0.79,12.39 1.82,24.92 3.76,36.26c0.92,6.05 1.94,11.34 2.97,16.64c1.03,5.3 2.52,10.82 3.52,14.49l0.13,0.86l0,0l-0.13,-0.86l-0.13,-0.86c0,0 0,0 0.23,0.11l1.1,2.92c0.74,1.96 1.24,3.79 1.73,5.63c1.24,3.79 2.23,7.46 3.12,11.9c1.89,8.11 3.78,16.21 5.22,25.72c2.99,18.24 4.99,40.04 4.92,64.07c-0.13,6.35 -0.26,12.71 -0.39,19.06c-0.36,6.24 -0.62,11.73 -1.23,17.87c-0.97,12.38 -2.17,24.64 -4.19,37.32c-2.01,12.69 -4.85,25.78 -8.52,37.69c-1.79,5.57 -3.9,11.8 -6.29,16.29c-1.13,2.68 -2.39,4.49 -3.64,6.31c-0.69,1.29 -1.26,1.81 -1.94,3.09c-0.92,1.18 -1.26,1.81 -2.64,2.76c-4.35,5.98 -8.66,0.75 -9.22,-11.56c-0.76,-10.79 2.28,-25.4 6.52,-30.61l0.06,-0.01z" id="svg_8"/>
  <path d="m561.73,1741.21c-0.58,0.52 -0.23,-0.11 -0.13,-0.86c0.1,-0.75 0.1,-0.75 0.21,-1.51c0.1,-0.75 0.31,-2.26 0.76,-3.65c0.31,-2.26 0.86,-4.41 1.05,-7.53c0.5,-5.38 0.99,-10.76 1.02,-16.36c0.36,-6.24 0.26,-12.71 0.15,-19.18c-0.06,-3.23 -0.24,-7.34 -0.29,-10.57c-0.16,-2.48 -0.22,-5.71 -0.61,-8.31c-1,-10.9 -2.71,-22.13 -5,-32.82c-1.26,-5.41 -2.63,-10.05 -3.89,-15.46l-2.34,-6.71l-1.1,-2.92l-0.37,-0.97l-0.6,-1.08l-0.5,-1.85l-0.5,-1.85c-2.6,-8.45 -4.26,-16.43 -6.15,-24.54c-1.79,-8.86 -2.99,-18.24 -4.45,-27.74c-2.32,-19.54 -3.85,-41.1 -3.3,-64.9c0.2,-23.17 2.01,-48.77 5.83,-72.65c1.91,-11.94 4.41,-24.4 7.15,-35.13c1.54,-5.68 2.99,-10.62 4.53,-16.32c0.89,-2.78 1.68,-4.82 2.57,-7.61l1.7,-3.2l1.92,-4.71c4.15,-11.69 9.97,-13.77 13.17,-4.24c2.97,9.42 2.08,26.63 -2.17,39.08c0.34,-0.64 0,0 0.23,0.11c0,0 -0.1,0.75 -0.1,0.75l-0.31,2.26c-0.21,1.51 -0.42,3.01 -0.73,5.27c-0.42,3.01 -0.94,6.78 -1.23,10.65c-0.71,6.89 -1.18,13.88 -1.54,20.13c-0.6,13.35 -0.62,26.18 0.06,39.32c0.79,12.39 1.82,24.92 3.76,36.26c0.92,6.05 1.94,11.34 2.97,16.64c1.03,5.3 2.52,10.82 3.52,14.49l0.13,0.86l0,0l-0.13,-0.86l-0.13,-0.86c0,0 0,0 0.23,0.11l1.1,2.92c0.74,1.96 1.24,3.79 1.73,5.63c1.24,3.79 2.23,7.46 3.12,11.9c1.89,8.11 3.78,16.21 5.22,25.72c2.99,18.24 4.99,40.04 4.92,64.07c-0.13,6.35 -0.26,12.71 -0.39,19.06c-0.36,6.24 -0.62,11.73 -1.23,17.87c-0.97,12.38 -2.17,24.64 -4.19,37.32c-2.01,12.69 -4.85,25.78 -8.52,37.69c-1.79,5.57 -3.9,11.8 -6.29,16.29c-1.13,2.68 -2.39,4.49 -3.64,6.31c-0.69,1.29 -1.26,1.81 -1.94,3.09c-0.92,1.18 -1.26,1.81 -2.64,2.76c-4.35,5.98 -8.66,0.75 -9.22,-11.56c-0.76,-10.79 2.28,-25.4 6.52,-30.61l0.06,-0.01z" id="svg_23"/>
  <path d="m701.73,1741.21c-0.58,0.52 -0.23,-0.11 -0.13,-0.86c0.1,-0.75 0.1,-0.75 0.21,-1.51c0.1,-0.75 0.31,-2.26 0.76,-3.65c0.31,-2.26 0.86,-4.41 1.05,-7.53c0.5,-5.38 0.99,-10.76 1.02,-16.36c0.36,-6.24 0.26,-12.71 0.15,-19.18c-0.06,-3.23 -0.24,-7.34 -0.29,-10.57c-0.16,-2.48 -0.22,-5.71 -0.61,-8.31c-1,-10.9 -2.71,-22.13 -5,-32.82c-1.26,-5.41 -2.63,-10.05 -3.89,-15.46l-2.34,-6.71l-1.1,-2.92l-0.37,-0.97l-0.6,-1.08l-0.5,-1.85l-0.5,-1.85c-2.6,-8.45 -4.26,-16.43 -6.15,-24.54c-1.79,-8.86 -2.99,-18.24 -4.45,-27.74c-2.32,-19.54 -3.85,-41.1 -3.3,-64.9c0.2,-23.17 2.01,-48.77 5.83,-72.65c1.91,-11.94 4.41,-24.4 7.15,-35.13c1.54,-5.68 2.99,-10.62 4.53,-16.32c0.89,-2.78 1.68,-4.82 2.57,-7.61l1.7,-3.2l1.92,-4.71c4.15,-11.69 9.97,-13.77 13.17,-4.24c2.97,9.42 2.08,26.63 -2.17,39.08c0.34,-0.64 0,0 0.23,0.11c0,0 -0.1,0.75 -0.1,0.75l-0.31,2.26c-0.21,1.51 -0.42,3.01 -0.73,5.27c-0.42,3.01 -0.94,6.78 -1.23,10.65c-0.71,6.89 -1.18,13.88 -1.54,20.13c-0.6,13.35 -0.62,26.18 0.06,39.32c0.79,12.39 1.82,24.92 3.76,36.26c0.92,6.05 1.94,11.34 2.97,16.64c1.03,5.3 2.52,10.82 3.52,14.49l0.13,0.86l0,0l-0.13,-0.86l-0.13,-0.86c0,0 0,0 0.23,0.11l1.1,2.92c0.74,1.96 1.24,3.79 1.73,5.63c1.24,3.79 2.23,7.46 3.12,11.9c1.89,8.11 3.78,16.21 5.22,25.72c2.99,18.24 4.99,40.04 4.92,64.07c-0.13,6.35 -0.26,12.71 -0.39,19.06c-0.36,6.24 -0.62,11.73 -1.23,17.87c-0.97,12.38 -2.17,24.64 -4.19,37.32c-2.01,12.69 -4.85,25.78 -8.52,37.69c-1.79,5.57 -3.9,11.8 -6.29,16.29c-1.13,2.68 -2.39,4.49 -3.64,6.31c-0.69,1.29 -1.26,1.81 -1.94,3.09c-0.92,1.18 -1.26,1.81 -2.64,2.76c-4.35,5.98 -8.66,0.75 -9.22,-11.56c-0.76,-10.79 2.28,-25.4 6.52,-30.61l0.06,-0.01z" id="svg_24"/>
 </g>
</svg>