<svg width="150" height="768" xmlns="http://www.w3.org/2000/svg" xmlns:svg="http://www.w3.org/2000/svg">
 <g class="layer">
  <title>Layer 1</title>
  <g id="svg_2">
   <path d="m66.39,100.86l49.45,0c2.96,0 5.35,-2.46 5.35,-5.48s-2.4,-5.46 -5.35,-5.46l-49.45,0c-2.95,0 -5.34,2.44 -5.34,5.46s2.4,5.48 5.34,5.48z" fill="black" id="svg_26"/>
   <path d="m66.39,136.79l49.45,0c2.96,0 5.35,-2.46 5.35,-5.48s-2.4,-5.46 -5.35,-5.46l-49.45,0c-2.95,0 -5.34,2.44 -5.34,5.46s2.4,5.48 5.34,5.48z" fill="black" id="svg_21"/>
   <path d="m66.39,172.73l49.45,0c2.96,0 5.35,-2.46 5.35,-5.48s-2.4,-5.46 -5.35,-5.46l-49.45,0c-2.95,0 -5.34,2.44 -5.34,5.46s2.4,5.48 5.34,5.48z" fill="black" id="svg_20"/>
   <path d="m66.39,280.54l49.45,0c2.96,0 5.35,-2.46 5.35,-5.48s-2.4,-5.46 -5.35,-5.46l-49.45,0c-2.95,0 -5.34,2.44 -5.34,5.46s2.4,5.48 5.34,5.48z" fill="black" id="svg_19"/>
   <path d="m66.39,352.41l49.45,0c2.96,0 5.35,-2.46 5.35,-5.48s-2.4,-5.46 -5.35,-5.46l-49.45,0c-2.95,0 -5.34,2.44 -5.34,5.46s2.4,5.48 5.34,5.48z" fill="black" id="svg_18"/>
   <path d="m66.39,460.22l49.45,0c2.96,0 5.35,-2.46 5.35,-5.48s-2.4,-5.46 -5.35,-5.46l-49.45,0c-2.95,0 -5.34,2.44 -5.34,5.46s2.4,5.48 5.34,5.48z" fill="black" id="svg_17"/>
   <path d="m66.39,496.15l49.45,0c2.96,0 5.35,-2.46 5.35,-5.48s-2.4,-5.46 -5.35,-5.46l-49.45,0c-2.95,0 -5.34,2.44 -5.34,5.46s2.4,5.48 5.34,5.48z" fill="black" id="svg_16"/>
   <path d="m66.09,603.96l49.45,0c2.95,0 5.34,-2.46 5.34,-5.48s-2.4,-5.46 -5.34,-5.46l-49.45,0c-2.96,0 -5.35,2.44 -5.35,5.46s2.4,5.48 5.35,5.48z" fill="black" id="svg_15"/>
   <path d="m66.09,675.83l49.45,0c2.95,0 5.34,-2.46 5.34,-5.48s-2.4,-5.46 -5.34,-5.46l-49.45,0c-2.96,0 -5.35,2.44 -5.35,5.46s2.4,5.48 5.35,5.48z" fill="black" id="svg_1"/>
   <path d="m138.19,736.77l-72.1,0c-2.96,0 -5.35,2.44 -5.35,5.46s2.4,5.48 5.35,5.48l72.1,0c2.96,0 5.34,-2.46 5.34,-5.48s-2.38,-5.46 -5.34,-5.46z" fill="black" id="svg_3"/>
   <path d="m66.09,711.76l49.45,0c2.95,0 5.34,-2.46 5.34,-5.48s-2.4,-5.46 -5.34,-5.46l-49.45,0c-2.96,0 -5.35,2.44 -5.35,5.46s2.4,5.48 5.35,5.48z" fill="black" id="svg_4"/>
   <path d="m66.09,639.9l49.45,0c2.95,0 5.34,-2.46 5.34,-5.48s-2.4,-5.46 -5.34,-5.46l-49.45,0c-2.96,0 -5.35,2.44 -5.35,5.46s2.4,5.48 5.35,5.48z" fill="black" id="svg_5"/>
   <path d="m138.19,557.09l-72.1,0c-2.96,0 -5.35,2.44 -5.35,5.46s2.4,5.48 5.35,5.48l72.1,0c2.96,0 5.34,-2.46 5.34,-5.48s-2.38,-5.46 -5.34,-5.46z" fill="black" id="svg_6"/>
   <path d="m66.39,532.09l49.45,0c2.96,0 5.35,-2.46 5.35,-5.48s-2.4,-5.46 -5.35,-5.46l-49.45,0c-2.95,0 -5.34,2.44 -5.34,5.46s2.4,5.48 5.34,5.48z" fill="black" id="svg_7"/>
   <path d="m66.39,424.27l49.45,0c2.96,0 5.35,-2.46 5.35,-5.48s-2.4,-5.46 -5.35,-5.46l-49.45,0c-2.95,0 -5.34,2.44 -5.34,5.46s2.4,5.48 5.34,5.48z" fill="black" id="svg_8"/>
   <path d="m138.5,377.41l-72.12,0c-2.95,0 -5.34,2.44 -5.34,5.46s2.4,5.48 5.34,5.48l72.12,0c2.96,0 5.34,-2.46 5.34,-5.48s-2.38,-5.46 -5.34,-5.46z" fill="black" id="svg_9"/>
   <path d="m138.5,197.73l-72.12,0c-2.95,0 -5.34,2.44 -5.34,5.46s2.4,5.48 5.34,5.48l72.12,0c2.96,0 5.34,-2.46 5.34,-5.48s-2.38,-5.46 -5.34,-5.46z" fill="black" id="svg_10"/>
   <path d="m66.39,316.47l49.45,0c2.96,0 5.35,-2.46 5.35,-5.48s-2.4,-5.46 -5.35,-5.46l-49.45,0c-2.95,0 -5.34,2.44 -5.34,5.46s2.4,5.48 5.34,5.48z" fill="black" id="svg_11"/>
   <path d="m66.39,244.6l49.45,0c2.96,0 5.35,-2.46 5.35,-5.48s-2.4,-5.46 -5.35,-5.46l-49.45,0c-2.95,0 -5.34,2.44 -5.34,5.46s2.4,5.48 5.34,5.48z" fill="black" id="svg_12"/>
   <path d="m66.39,64.92l49.45,0c2.96,0 5.35,-2.46 5.35,-5.48s-2.4,-5.46 -5.35,-5.46l-49.45,0c-2.95,0 -5.34,2.44 -5.34,5.46s2.4,5.48 5.34,5.48z" fill="black" id="svg_28"/>
   <path d="m138.5,18.05l-72.12,0c-2.95,0 -5.34,2.44 -5.34,5.46s2.4,5.48 5.34,5.48l72.12,0c2.96,0 5.34,-2.46 5.34,-5.48s-2.38,-5.46 -5.34,-5.46z" fill="black" id="svg_29"/>
  </g>
  <path d="m52.08,24.03l0,0a0,0 0 0 1 -1.79,2.88l-40.06,20.03a0,0 0 0 1 -3.2,0a0,0 0 0 1 -1.5,-2.72l0,-40.22a0,0 0 0 1 4.61,-2.85l40.16,20.03a0,0 0 0 1 1.79,2.85l-0.01,0zm-40.06,14.85l29.7,-14.85l-29.7,-14.85l0,29.7z" id="svg_14"/>
  <path d="m52.08,742.68l0,0a0,0 0 0 1 -1.79,2.88l-40.06,20.03a0,0 0 0 1 -3.2,0a0,0 0 0 1 -1.5,-2.72l0,-40.22a0,0 0 0 1 4.61,-2.85l40.16,20.03a0,0 0 0 1 1.79,2.85l-0.01,0zm-40.06,14.85l29.7,-14.85l-29.7,-14.85l0,29.7z" id="svg_22"/>
 </g>
</svg>