<svg width="2048" height="2048" xmlns="http://www.w3.org/2000/svg" xmlns:svg="http://www.w3.org/2000/svg" enable-background="new 0 0 550 550" version="1.1" xml:space="preserve">
 <title>CO2 by IconVerse from Noun Project</title>
 <g class="layer">
  <title>Layer 1</title>
  <g id="svg_1">
   <g id="svg_2">
    <path d="m1028.4,1694.79c-173.14,0.46 -339.62,-66.54 -464.2,-186.75c-250.47,32.55 -479.91,-144.14 -512.45,-394.61s144.14,-479.91 394.61,-512.45c19.89,-2.59 39.9,-3.85 59.91,-3.81l4.69,0c235.72,-285.76 658.5,-326.35 944.26,-90.63c33.04,27.25 63.38,57.59 90.63,90.63c252.57,1.72 455.93,207.82 454.26,460.43s-207.86,455.93 -460.43,454.22c-16.01,-0.08 -31.98,-1.03 -47.87,-2.82c-124.55,119.67 -290.68,186.29 -463.4,185.8zm-453.53,-249.41c8.08,0 15.85,3.24 21.57,8.96c237.67,238.62 623.74,239.38 862.36,1.75c0.27,-0.27 0.5,-0.5 0.76,-0.76c6.78,-6.78 16.39,-9.99 25.92,-8.61c19.02,2.74 38.23,4.15 57.43,4.15c218.92,0 396.36,-177.45 396.36,-396.36s-177.45,-396.36 -396.36,-396.36c-3.58,0 -7.17,0 -10.71,0c-9.6,0.34 -18.79,-3.93 -24.73,-11.43c-208.36,-264.57 -591.77,-310.16 -856.34,-101.76c-37.92,29.84 -72.15,64.1 -101.99,102.03c-6.1,7.62 -15.51,11.89 -25.27,11.43c-6.17,-0.27 -12.12,-0.27 -17.61,-0.27c-218.92,0.11 -396.25,177.68 -396.14,396.59c0.11,218.92 177.68,396.25 396.59,396.14c21.15,0 42.3,-1.72 63.19,-5.11c1.64,-0.27 3.28,-0.38 4.95,-0.38z" id="svg_3"/>
    <path d="m799.73,1267.94c-134.73,0 -243.92,-109.23 -243.88,-243.96s109.23,-243.88 243.92,-243.88c49.85,0 98.48,15.28 139.38,43.75c13.8,9.64 17.19,28.66 7.55,42.46c-9.64,13.8 -28.66,17.19 -42.46,7.55c-82.93,-57.7 -196.96,-37.27 -254.66,45.66c-57.7,82.93 -37.24,196.96 45.7,254.66c62.81,43.71 146.16,43.71 208.97,0c13.8,-9.64 32.81,-6.25 42.46,7.55c9.64,13.8 6.25,32.81 -7.55,42.46c-40.86,28.58 -89.56,43.87 -139.41,43.75z" id="svg_4"/>
    <path d="m1135.11,1267.94c-67.34,0 -121.96,-54.61 -121.96,-121.96l0,-243.92c0,-67.34 54.61,-121.96 121.96,-121.96s121.96,54.61 121.96,121.96l0,243.92c0,67.34 -54.61,121.96 -121.96,121.96zm0,-426.85c-33.69,0 -60.98,27.29 -60.98,60.98l0,243.92c0,33.69 27.29,60.98 60.98,60.98s60.98,-27.29 60.98,-60.98l0,-243.92c0,-33.69 -27.29,-60.98 -60.98,-60.98z" id="svg_5"/>
    <path d="m1470.5,1389.89l-121.96,0c-16.85,0 -30.49,-13.64 -30.49,-30.49l0,-14.06c-0.19,-40.4 22.64,-77.33 58.81,-95.28l25.46,-12.73c23.13,-11.47 37.73,-35.06 37.69,-60.86c0,-16.85 -13.64,-30.49 -30.49,-30.49s-30.49,13.64 -30.49,30.49s-13.64,30.49 -30.49,30.49s-30.49,-13.64 -30.49,-30.49c0,-50.5 40.97,-91.47 91.47,-91.47s91.47,40.97 91.47,91.47c0.15,48.97 -27.52,93.76 -71.38,115.52l-25.5,12.73c-10.1,5.03 -17.99,13.64 -22.03,24.2l88.42,0c16.85,0 30.49,13.64 30.49,30.49s-13.64,30.49 -30.49,30.49z" id="svg_6"/>
    <path d="m1756.34,566.67c-50.5,0 -91.47,-40.97 -91.47,-91.47s40.97,-91.47 91.47,-91.47s91.47,40.97 91.47,91.47s-40.97,91.47 -91.47,91.47zm0,-121.96c-16.85,0 -30.49,13.64 -30.49,30.49s13.64,30.49 30.49,30.49s30.49,-13.64 30.49,-30.49s-13.64,-30.49 -30.49,-30.49z" id="svg_7"/>
    <path d="m254.72,597.16c-32.05,0.08 -62.85,-12.54 -85.64,-35.1c-47.98,15.85 -99.7,-10.21 -115.52,-58.2s10.18,-99.66 58.16,-115.52c18.64,-6.14 38.72,-6.14 57.36,0c47.98,-47.3 125.2,-46.73 172.46,1.26s46.76,125.16 -1.22,172.46c-22.83,22.49 -53.55,35.1 -85.6,35.1zm-77.52,-103.93c1.83,0 3.66,0.19 5.45,0.5c8.42,1.56 15.82,6.56 20.39,13.8c17.87,28.55 55.53,37.16 84.08,19.25c28.51,-17.87 37.16,-55.49 19.25,-84.04c-17.87,-28.55 -55.53,-37.16 -84.04,-19.28c-7.81,4.92 -14.41,11.51 -19.28,19.28c-8.96,14.25 -27.75,18.6 -42.04,9.64c-0.76,-0.5 -1.52,-0.99 -2.25,-1.56c-5.3,-4 -11.74,-6.14 -18.37,-6.1c-16.85,0 -30.49,13.64 -30.49,30.49s13.64,30.49 30.49,30.49c6.63,0 13.11,-2.21 18.37,-6.25c5.3,-4.04 11.78,-6.21 18.45,-6.21z" id="svg_8"/>
   </g>
  </g>
 </g>
</svg>