<svg width="2048" height="2048" xmlns="http://www.w3.org/2000/svg" xmlns:svg="http://www.w3.org/2000/svg" data-name="Home energy by Yosua Bungara from Noun Project">
 <g class="layer">
  <title>Layer 1</title>
  <path d="m1753.57,877.77l-467.55,-442.48l-467.34,442.48c-125.34,118.37 -194.19,275.74 -194.19,443.26c0,345.38 296.83,626.5 661.52,626.5c364.88,0 661.91,-281.13 661.91,-626.5c0,-167.52 -69.03,-325.09 -194.38,-443.26l0.02,0zm-467.55,877.19c-252.66,0 -458.19,-194.58 -458.19,-433.91c0,-115.99 47.74,-225.21 134.7,-307.19l323.5,-306.39l323.89,306.39c86.74,81.96 134.49,191.2 134.49,307.19c0,239.14 -205.52,433.91 -458.38,433.91l-0.02,0zm-669.68,-1452.17l-213.68,-202.34l-213.68,202.34c-57.3,54.12 -88.93,126.14 -88.93,202.54c0,157.98 135.69,286.3 302.61,286.3s302.41,-128.32 302.41,-286.3c0.2,-76.4 -31.43,-148.42 -88.73,-202.54zm-213.68,416.8c-124.75,0 -226.21,-96.09 -226.21,-214.07c0,-57.3 23.47,-111.21 66.45,-151.6l159.75,-151.21l159.75,151.21c42.77,40.39 66.45,94.3 66.45,151.6c0,117.98 -101.47,214.07 -226.21,214.07z" fill="black" id="svg_1"/>
 </g>
</svg>