<svg width="2048" height="2048" xmlns="http://www.w3.org/2000/svg" xmlns:svg="http://www.w3.org/2000/svg" data-name="Home energy by Yosua Bungara from Noun Project">
 <g class="layer">
  <title>Layer 1</title>
  <path class="cls-1" d="m2007.64,914.78l-960.96,-760.63s-1.85,-0.73 -2.97,-1.48c-2.21,-1.48 -4.43,-2.58 -6.66,-3.33c-2.21,-0.73 -4.06,-1.48 -6.28,-2.21c-2.21,-0.37 -4.81,-0.37 -7.03,-0.37c-2.21,0 -4.43,0 -6.66,0.37c-2.21,0.37 -4.43,1.12 -6.66,2.21c-2.21,0.73 -4.43,1.85 -6.66,3.33c-0.73,0.73 -1.85,0.73 -2.97,1.48l-960.96,760.63c-15.9,12.57 -18.85,35.84 -5.91,51.75c7.39,9.24 18.12,14.05 29.2,14.05c8.12,0 16.27,-2.58 22.91,-8.12l180.36,-142.67l0,1034.49c0,20.33 16.63,36.96 36.96,36.96l1441.41,0c20.33,0 36.96,-16.63 36.96,-36.96l0,-1034.49l180.36,142.67c6.66,5.54 14.78,8.12 22.91,8.12c10.72,0 21.81,-4.81 29.2,-14.05c12.57,-15.9 9.97,-39.18 -5.91,-51.75l-0.73,0l0.06,0l0.03,0zm-300.12,912.91l-1367.51,0l0,-1056.3l683.75,-541.46l683.75,541.46l0,1056.3l0.02,0l-0.01,0z" id="svg_1" transform="matrix(1 0 0 1 0 0)"/>
  <path d="m1471.27,1134.89l-286.64,-271.27l-286.51,271.27c-76.84,72.57 -119.05,169.05 -119.05,271.75c0,211.74 181.98,384.09 405.56,384.09c223.7,0 405.8,-172.35 405.8,-384.09c0,-102.7 -42.32,-199.3 -119.17,-271.75l0.01,0zm-286.64,537.78c-154.9,0 -280.9,-119.29 -280.9,-266.02c0,-71.11 29.27,-138.07 82.58,-188.33l198.33,-187.84l198.57,187.84c53.18,50.25 82.45,117.22 82.45,188.33c0,146.61 -126,266.02 -281.02,266.02l-0.01,0zm-410.56,-890.28l-131,-124.05l-131,124.05c-35.13,33.18 -54.52,77.33 -54.52,124.17c0,96.85 83.19,175.52 185.52,175.52s185.4,-78.67 185.4,-175.52c0.12,-46.84 -19.27,-90.99 -54.4,-124.17zm-131,255.53c-76.48,0 -138.68,-58.91 -138.68,-131.24c0,-35.13 14.39,-68.18 40.74,-92.94l97.94,-92.7l97.94,92.7c26.22,24.76 40.74,57.81 40.74,92.94c0,72.33 -62.21,131.24 -138.68,131.24z" fill="black" id="svg_2"/>
 </g>
</svg>