<svg width="2048" height="2048" xmlns="http://www.w3.org/2000/svg" xmlns:svg="http://www.w3.org/2000/svg" data-name="Home energy by Yosua Bungara from Noun Project">
 <g class="layer">
  <title>Layer 1</title>
  <path class="cls-1" d="m2007.64,914.78l-960.96,-760.63s-1.85,-0.73 -2.97,-1.48c-2.21,-1.48 -4.43,-2.58 -6.66,-3.33c-2.21,-0.73 -4.06,-1.48 -6.28,-2.21c-2.21,-0.37 -4.81,-0.37 -7.03,-0.37c-2.21,0 -4.43,0 -6.66,0.37c-2.21,0.37 -4.43,1.12 -6.66,2.21c-2.21,0.73 -4.43,1.85 -6.66,3.33c-0.73,0.73 -1.85,0.73 -2.97,1.48l-960.96,760.63c-15.9,12.57 -18.85,35.84 -5.91,51.75c7.39,9.24 18.12,14.05 29.2,14.05c8.12,0 16.27,-2.58 22.91,-8.12l180.36,-142.67l0,1034.49c0,20.33 16.63,36.96 36.96,36.96l1441.41,0c20.33,0 36.96,-16.63 36.96,-36.96l0,-1034.49l180.36,142.67c6.66,5.54 14.78,8.12 22.91,8.12c10.72,0 21.81,-4.81 29.2,-14.05c12.57,-15.9 9.97,-39.18 -5.91,-51.75l-0.73,0l0.06,0l0.03,0zm-300.12,912.91l-1367.51,0l0,-1056.3l683.75,-541.46l683.75,541.46l0,1056.3l0.02,0l-0.01,0z" id="svg_1"/>
 </g>
</svg>