<svg width="2048" height="2048" xmlns="http://www.w3.org/2000/svg" xmlns:svg="http://www.w3.org/2000/svg">
 <title>sun_light_lightness_lighter</title>
 <desc>Created with Sketch.</desc>
 <g class="layer">
  <title>Layer 1</title>
  <g fill="none" fill-rule="evenodd" id="svg_1">
   <path d="m1462.74,1023.58c0,-247.51 -196.42,-448.07 -438.74,-448.07c-242.3,0 -438.74,200.58 -438.74,448.07c0,247.71 196.42,448.29 438.74,448.29c242.3,0 438.74,-200.58 438.74,-448.29zm-789.64,0c0,-197.87 156.97,-358.38 350.9,-358.38c193.94,0 350.9,160.51 350.9,358.38c0,198.09 -156.97,358.58 -350.9,358.58c-193.94,0 -350.9,-160.51 -350.9,-358.58zm350.9,-985.84c-24.3,0 -43.81,19.11 -43.81,44.65l0,358.8c0,24.7 20.34,44.65 43.81,44.65c24.3,0 43.81,-19.31 43.81,-44.65l0,-358.8c0,-24.7 -20.34,-44.65 -43.81,-44.65zm682.71,288.81c-17.02,-17.44 -44.23,-18.06 -61.87,-0.2l-248.54,253.93c-17.02,17.44 -16.41,46.1 0.2,63.12c17.24,17.64 44.43,18.06 61.87,0.2l248.54,-253.73c17.02,-17.44 16.41,-46.3 -0.2,-63.32zm282.79,697.45c0,-24.7 -18.69,-44.84 -43.61,-44.84l-351.32,0c-24.3,0 -43.81,20.76 -43.81,44.84c0,24.7 18.89,44.84 43.81,44.84l351.32,0c24.08,0 43.61,-20.76 43.61,-44.84zm-282.79,697.45c17.24,-17.44 17.86,-45.26 0.2,-63.32l-248.54,-253.73c-17.02,-17.44 -45.26,-16.82 -61.87,0.2c-17.02,17.44 -17.64,45.26 -0.2,63.12l248.54,253.93c17.02,17.44 45.26,16.82 61.87,-0.2zm-682.71,288.81c24.3,0 43.81,-19.11 43.81,-44.65l0,-358.8c0,-24.7 -20.34,-44.65 -43.81,-44.65c-24.3,0 -43.81,19.31 -43.81,44.65l0,358.8c0,24.7 20.34,44.65 43.81,44.65zm-682.71,-288.81c17.02,17.44 44.23,18.06 61.87,0.2l248.54,-253.93c17.02,-17.44 16.41,-46.1 -0.2,-63.12c-17.24,-17.64 -44.43,-18.06 -61.87,-0.2l-248.54,253.73c-17.02,17.44 -16.41,46.3 0.2,63.32zm-282.79,-697.45c0,24.7 18.69,44.84 43.61,44.84l351.32,0c24.3,0 43.81,-20.76 43.81,-44.84c0,-24.7 -18.89,-44.84 -43.81,-44.84l-351.32,0c-24.08,0 -43.61,20.76 -43.61,44.84zm282.79,-697.45c-17.24,17.44 -17.86,45.26 -0.2,63.32l248.54,253.73c17.02,17.44 45.26,16.82 61.87,-0.2c17.02,-17.44 17.64,-45.26 0.2,-63.12l-248.54,-253.93c-17.02,-17.44 -45.26,-16.82 -61.87,0.2z" fill="#000000" id="svg_2"/>
  </g>
 </g>
</svg>