<svg width="2048" height="2048" xmlns="http://www.w3.org/2000/svg" xmlns:svg="http://www.w3.org/2000/svg" data-name="Layer 1">
 <g class="layer">
  <title>Layer 1</title>
  <g id="svg_7">
   <rect height="66.67" id="svg_1" width="1266.67" x="757.33" y="657.33"/>
   <rect height="66.67" id="svg_2" width="700" x="1324" y="990.66"/>
   <rect height="66.67" id="svg_3" width="1266.67" x="757.33" y="1324"/>
   <path d="m357.33,857.33a33.33,33.33 0 0 0 33.33,33.33l133.33,0a33.33,33.33 0 0 0 33.33,-33.33l0,-133.33l133.33,0l0,-66.67l-133.33,0l0,-133.33a33.33,33.33 0 0 0 -33.33,-33.33l-133.33,0a33.33,33.33 0 0 0 -33.33,33.33l0,133.33l-333.33,0l0,66.67l333.33,0l0,133.33zm66.67,-300l66.67,0l0,266.67l-66.67,0l0,-266.67z" id="svg_4"/>
   <path d="m924,1190.66a33.33,33.33 0 0 0 33.33,33.33l133.33,0a33.33,33.33 0 0 0 33.33,-33.33l0,-133.33l133.33,0l0,-66.67l-133.33,0l0,-133.33a33.33,33.33 0 0 0 -33.33,-33.33l-133.33,0a33.33,33.33 0 0 0 -33.33,33.33l0,133.33l-900,0l0,66.67l900,0l0,133.33zm66.67,-300l66.67,0l0,266.67l-66.67,0l0,-266.67z" id="svg_5"/>
   <path d="m557.33,1190.66a33.33,33.33 0 0 0 -33.33,-33.33l-133.33,0a33.33,33.33 0 0 0 -33.33,33.33l0,133.33l-333.33,0l0,66.67l333.33,0l0,133.33a33.33,33.33 0 0 0 33.33,33.33l133.33,0a33.33,33.33 0 0 0 33.33,-33.33l0,-133.33l133.33,0l0,-66.67l-133.33,0l0,-133.33zm-66.67,300l-66.67,0l0,-266.67l66.67,0l0,266.67z" id="svg_6"/>
  </g>
 </g>
</svg>