<svg width="2048" height="2048" xmlns="http://www.w3.org/2000/svg" xmlns:svg="http://www.w3.org/2000/svg" version="1.2" xml:space="preserve">
 <g class="layer">
  <title>Motion by Arthur Shlain from Noun Project</title>
  <g id="svg_7">
   <polygon id="svg_1" points="1106.986083984375,753.7212524414062 828.427001953125,753.7212524414062 705.3749389648438,999.825439453125 802.0694580078125,1048.1727294921875 895.2395629882812,861.8323974609375 990.5936279296875,861.8323974609375 828.427001953125,1186.165771484375 645.611083984375,1186.165771484375 645.611083984375,1294.27685546875 895.2395629882812,1294.27685546875 969.9444580078125,1144.8673095703125 1137.8193359375,1480.6170654296875 1234.513916015625,1432.2698974609375 1030.3785400390625,1023.9991455078125 1084.73681640625,915.2609252929688 1157.236083984375,1023.9991455078125 1402.388916015625,1023.9991455078125 1402.388916015625,915.8880004882812 1215.09716796875,915.8880004882812 "/>
   <path d="m1078.06,645.61c0,59.68 48.43,108.11 108.11,108.11s108.11,-48.43 108.11,-108.11s-48.43,-108.11 -108.11,-108.11s-108.11,48.43 -108.11,108.11z" id="svg_2"/>
   <path d="m450.58,450.58l-114.6,-114.6c-183.79,183.79 -284.98,428.12 -284.98,688.02s101.19,504.23 284.98,688.02l114.6,-114.6c-153.09,-153.3 -237.41,-356.77 -237.41,-573.42s84.33,-420.12 237.41,-573.42z" id="svg_3"/>
   <path d="m1597.42,450.58c153.09,153.3 237.41,356.77 237.41,573.42s-84.33,420.12 -237.41,573.42l114.6,114.6c183.79,-183.79 284.98,-428.12 284.98,-688.02s-101.19,-504.23 -284.98,-688.02l-114.6,114.6z" id="svg_4"/>
   <path d="m527.12,527.12c-273.95,273.95 -273.95,719.8 0,993.76l76.33,-76.33c-231.79,-232.01 -231.79,-609.1 0,-841.1l-76.33,-76.33z" id="svg_5"/>
   <path d="m1520.88,527.12l-76.33,76.33c231.79,232.01 231.79,609.1 0,841.1l76.33,76.33c273.95,-273.95 273.95,-719.8 0,-993.76z" id="svg_6"/>
  </g>
 </g>
</svg>