<svg width="2048" height="2048" xmlns="http://www.w3.org/2000/svg" xmlns:svg="http://www.w3.org/2000/svg" data-name="Home energy by Yosua Bungara from Noun Project">
 <g class="layer">
  <title>Layer 1</title>
  <path d="m1312.87,1822.28l-362.49,0l0,-943.5c0,-24.45 -20.78,-42.79 -48.49,-42.79s-48.49,18.34 -48.49,42.79l0,244.54l-173.17,-152.84c-18.47,-16.3 -48.49,-16.3 -69.27,0c-18.47,16.3 -18.47,42.79 0,61.13l244.74,216.01l0,203.78c-60.03,24.45 -124.68,36.68 -191.64,36.68c-251.67,0 -457.16,-181.36 -457.16,-403.49c0,-222.12 205.49,-403.49 457.16,-403.49c27.71,0 48.49,-18.34 48.49,-42.79s-20.78,-42.79 -48.49,-42.79c-16.16,0 -32.32,0 -46.18,2.04c-30.02,-44.83 -48.49,-93.74 -48.49,-146.72c0,-152.84 140.84,-279.18 316.32,-279.18c83.12,0 163.93,28.53 221.65,81.51c18.47,16.3 48.49,16.3 69.27,0c18.47,-16.3 18.47,-42.79 0,-61.13c-78.5,-67.25 -180.09,-105.97 -290.92,-105.97c-228.58,-2.04 -413.29,160.99 -413.29,362.73c0,57.06 13.85,112.08 43.87,163.02c-235.5,57.06 -406.36,246.57 -406.36,470.73c0,268.99 249.36,489.07 554.13,489.07c64.65,0 131.61,-10.19 191.64,-30.57l0,281.22l-367.11,0c-27.71,0 -48.49,18.34 -48.49,42.79s20.78,42.79 48.49,42.79l821.96,0c27.71,0 48.49,-18.34 48.49,-42.79s-20.78,-42.79 -46.18,-42.79l0.01,0.01z" id="svg_7"/>
  <path clip-rule="evenodd" d="m1464,1689c-207.15,0 -375,-137.4 -375,-306.75c0,-77.55 35.7,-148.35 93.75,-202.35l0,-640.8c0,-127.05 126,-230.1 281.25,-230.1c155.25,0 281.25,103.05 281.25,230.1l0,640.8c58.2,54 93.75,124.8 93.75,202.35c0,169.35 -167.85,306.75 -375,306.75zm93.75,-438.75l0,-164.55l0,-393.3l0,-153.3c0,-42.45 -42,-76.8 -93.75,-76.8c-51.75,0 -93.75,34.35 -93.75,76.8l0,153.3l0,393.3l0,164.55c-55.8,26.55 -93.75,75.45 -93.75,132c0,84.75 84,153.3 187.5,153.3s187.5,-68.55 187.5,-153.3c0,-56.55 -37.95,-105.45 -93.75,-132zm-93.75,247.05c-77.55,0 -140.55,-51.6 -140.55,-115.05c0,-49.95 39.3,-92.1 93.75,-108l0,-392.7l93.75,0l0,392.7c54.45,15.9 93.75,58.05 93.75,108c0,63.45 -63,115.05 -140.7,115.05z" fill="black" fill-rule="evenodd" id="svg_1"/>
 </g>
</svg>