<svg width="2048" height="2048" xmlns="http://www.w3.org/2000/svg" xmlns:svg="http://www.w3.org/2000/svg" data-name="Home energy by Yosua Bungara from Noun Project">
 <g class="layer">
  <title>Layer 1</title>
  <path d="m1602.39,1849.33l-362.49,0l0,-943.5c0,-24.45 -20.78,-42.79 -48.49,-42.79s-48.49,18.34 -48.49,42.79l0,244.54l-173.17,-152.84c-18.47,-16.3 -48.49,-16.3 -69.27,0c-18.47,16.3 -18.47,42.79 0,61.13l244.74,216.01l0,203.78c-60.03,24.45 -124.68,36.68 -191.64,36.68c-251.67,0 -457.16,-181.36 -457.16,-403.49c0,-222.12 205.49,-403.49 457.16,-403.49c27.71,0 48.49,-18.34 48.49,-42.79s-20.78,-42.79 -48.49,-42.79c-16.16,0 -32.32,0 -46.18,2.04c-30.02,-44.83 -48.49,-93.74 -48.49,-146.72c0,-152.84 140.84,-279.18 316.32,-279.18c83.12,0 163.93,28.53 221.65,81.51c18.47,16.3 48.49,16.3 69.27,0c18.47,-16.3 18.47,-42.79 0,-61.13c-78.5,-67.25 -180.09,-105.97 -290.92,-105.97c-228.58,-2.04 -413.29,160.99 -413.29,362.73c0,57.06 13.85,112.08 43.87,163.02c-235.5,57.06 -406.36,246.57 -406.36,470.73c0,268.99 249.36,489.07 554.13,489.07c64.65,0 131.61,-10.19 191.64,-30.57l0,281.22l-367.11,0c-27.71,0 -48.49,18.34 -48.49,42.79s20.78,42.79 48.49,42.79l821.96,0c27.71,0 48.49,-18.34 48.49,-42.79s-20.78,-42.79 -46.18,-42.79l0.01,0.01z" id="svg_7"/>
 </g>
</svg>