<svg width="2048" height="2048" xmlns="http://www.w3.org/2000/svg" xmlns:svg="http://www.w3.org/2000/svg" data-name="Home energy by Yosua Bungara from Noun Project">
 <g class="layer">
  <title>Layer 1</title>
  <path d="m1312.87,1822.28l-362.49,0l0,-943.5c0,-24.45 -20.78,-42.79 -48.49,-42.79s-48.49,18.34 -48.49,42.79l0,244.54l-173.17,-152.84c-18.47,-16.3 -48.49,-16.3 -69.27,0c-18.47,16.3 -18.47,42.79 0,61.13l244.74,216.01l0,203.78c-60.03,24.45 -124.68,36.68 -191.64,36.68c-251.67,0 -457.16,-181.36 -457.16,-403.49c0,-222.12 205.49,-403.49 457.16,-403.49c27.71,0 48.49,-18.34 48.49,-42.79s-20.78,-42.79 -48.49,-42.79c-16.16,0 -32.32,0 -46.18,2.04c-30.02,-44.83 -48.49,-93.74 -48.49,-146.72c0,-152.84 140.84,-279.18 316.32,-279.18c83.12,0 163.93,28.53 221.65,81.51c18.47,16.3 48.49,16.3 69.27,0c18.47,-16.3 18.47,-42.79 0,-61.13c-78.5,-67.25 -180.09,-105.97 -290.92,-105.97c-228.58,-2.04 -413.29,160.99 -413.29,362.73c0,57.06 13.85,112.08 43.87,163.02c-235.5,57.06 -406.36,246.57 -406.36,470.73c0,268.99 249.36,489.07 554.13,489.07c64.65,0 131.61,-10.19 191.64,-30.57l0,281.22l-367.11,0c-27.71,0 -48.49,18.34 -48.49,42.79s20.78,42.79 48.49,42.79l821.96,0c27.71,0 48.49,-18.34 48.49,-42.79s-20.78,-42.79 -46.18,-42.79l0.01,0.01z" id="svg_7"/>
  <path d="m1757.48,838.38l-286.64,-307.2l-286.51,307.2c-76.84,82.18 -119.05,191.44 -119.05,307.75c0,239.79 181.98,434.97 405.56,434.97c223.7,0 405.8,-195.18 405.8,-434.97c0,-116.3 -42.32,-225.7 -119.17,-307.75l0.01,0zm-286.64,609.02c-154.9,0 -280.9,-135.09 -280.9,-301.26c0,-80.53 29.27,-156.36 82.58,-213.28l198.33,-212.72l198.57,212.72c53.18,56.91 82.45,132.75 82.45,213.28c0,166.03 -126,301.26 -281.02,301.26l-0.01,0zm-410.56,-1008.21l-131,-140.48l-131,140.48c-35.13,37.58 -54.52,87.57 -54.52,140.62c0,109.68 83.19,198.77 185.52,198.77s185.4,-89.09 185.4,-198.77c0.12,-53.04 -19.27,-103.04 -54.4,-140.62zm-131,289.38c-76.48,0 -138.68,-66.71 -138.68,-148.62c0,-39.78 14.39,-77.21 40.74,-105.25l97.94,-104.98l97.94,104.98c26.22,28.04 40.74,65.47 40.74,105.25c0,81.91 -62.21,148.62 -138.68,148.62z" fill="black" id="svg_1"/>
 </g>
</svg>