<svg width="2048" height="2048" xmlns="http://www.w3.org/2000/svg" xmlns:svg="http://www.w3.org/2000/svg" version="1.2" xml:space="preserve">
 <g class="layer">
  <title>Resting by bsd studio from Noun Project</title>
  <path d="m450.58,450.58l-114.6,-114.6c-183.79,183.79 -284.98,428.12 -284.98,688.02s101.19,504.23 284.98,688.02l114.6,-114.6c-153.09,-153.3 -237.41,-356.77 -237.41,-573.42s84.33,-420.12 237.41,-573.42z" id="svg_3"/>
  <path d="m1597.42,450.58c153.09,153.3 237.41,356.77 237.41,573.42s-84.33,420.12 -237.41,573.42l114.6,114.6c183.79,-183.79 284.98,-428.12 284.98,-688.02s-101.19,-504.23 -284.98,-688.02l-114.6,114.6z" id="svg_4"/>
  <path d="m527.12,527.12c-273.95,273.95 -273.95,719.8 0,993.76l76.33,-76.33c-231.79,-232.01 -231.79,-609.1 0,-841.1l-76.33,-76.33z" id="svg_5"/>
  <path d="m1520.88,527.12l-76.33,76.33c231.79,232.01 231.79,609.1 0,841.1l76.33,76.33c273.95,-273.95 273.95,-719.8 0,-993.76z" id="svg_6"/>
  <g id="svg_1">
   <path d="m866.81,1351.62c0,0 -37.16,-0.01 -54.49,-0.02c-4.61,0 -8.18,4.05 -7.59,8.63l18.95,146.91c0.66,5.15 5.05,9 10.24,9l12.71,0c5.33,0 9.82,-3.95 10.5,-9.24l18.7,-145.03c0.7,-5.44 -3.54,-10.26 -9.02,-10.26z" id="svg_2"/>
   <path d="m807.84,749.88c55.05,0 99.84,-42.68 99.84,-97.73c0,-55.05 -44.79,-99.84 -99.84,-99.84s-99.84,44.79 -99.84,99.84c0,55.05 44.79,97.73 99.84,97.73z" id="svg_7"/>
   <path d="m1435.15,1316.6l-172.99,-271.53c-0.26,-0.41 -0.48,-0.84 -0.68,-1.29c-8.85,-20.22 -32.18,-30.6 -53.14,-23.65l-163.17,55.67c-2.32,0.79 -4.87,0.59 -7.04,-0.57c-2.17,-1.15 -3.76,-3.15 -4.4,-5.52l-64.93,-240.6c-1.72,-6.45 -4.07,-12.64 -6.98,-18.42c0,-0.01 -0.01,-0.02 -0.01,-0.02c-11.27,-22.33 -31.44,-39.63 -55.33,-47.46c-17.59,-5.87 -36.42,-6.41 -54.48,-1.58c-21.89,5.79 -41.04,19.31 -53.93,38.06c-1.83,2.66 -4.96,4.09 -8.17,3.81l-154.42,-15.03c-3.31,-0.32 -6.15,-2.46 -7.39,-5.54c-1.23,-3.08 -0.64,-6.6 1.54,-9.11l65.29,-61.83c5.58,-5.28 7.28,-13.37 4.58,-20.56c-4.66,-12.45 -5.47,-27.98 -5.63,-42.96c-0.09,-8.53 -10.34,-12.79 -16.44,-6.83l-139.8,136.59c-5,5.79 -11.49,23.11 -11.39,31.07c0,0.27 0,0.53 -0.03,0.8c-1.33,17.05 11.41,32.27 28.41,33.91l76.18,7.65c0,0 0,0 0,0l146.56,14.72c0.15,0.02 0.28,0.06 0.42,0.08c0.27,0.04 0.53,0.1 0.8,0.16c0.24,0.06 0.49,0.11 0.72,0.19c0.49,0.16 0.97,0.36 1.42,0.6c0,0 0.01,0 0.01,0c2.14,1.15 3.78,3.17 4.41,5.65l80.9,321.75l90.18,0l240.12,-79.57c3.86,-1.29 8.09,0.23 10.28,3.66l89.26,140.07c0.15,0.22 0.27,0.45 0.4,0.68c0.09,0.17 0.2,0.33 0.28,0.5l65.6,102.95c6.2,9.74 15.83,16.48 27.12,18.99c11.29,2.5 22.86,0.47 32.6,-5.73c20.06,-12.82 26.01,-39.65 13.25,-59.79z" id="svg_8"/>
   <path d="m1012.69,1194.84l171.65,0c1.84,0 3.55,0.56 4.97,1.52c2.37,1.59 3.93,4.3 3.93,7.37l0,269.16c0,23.86 19.41,43.26 43.26,43.26c23.85,0 43.26,-19.4 43.26,-43.26l0,-206.2l-84.37,-132.39l-182.69,60.54z" id="svg_9"/>
   <path d="m912.6,608.05c2.13,6.7 8.38,11.22 15.41,11.19l85.36,-0.42c3.31,0.21 6.24,2.24 7.57,5.28c1.34,3.04 0.87,6.57 -1.21,9.15l-85,103.7c-5.6,6.83 -4.11,17.07 3.3,21.87c7.24,4.68 13.93,10.17 19.93,16.35c7.81,8.04 20.91,7.41 27.99,-1.28l132.24,-162.25c5.27,-6.54 7.67,-14.75 6.77,-23.11c-0.91,-8.39 -4.41,-22.63 -11,-27.93c-6.96,-5.63 -19.91,-7.16 -25.06,-7.16c-0.14,0 -140.88,0.95 -192.89,1.3c-7.63,0.05 -11.83,8.91 -7.02,14.83c9.52,11.72 19.25,24.76 23.61,38.48z" id="svg_10"/>
   <path d="m956.85,1212.59l-97.71,0c-4.07,0 -7.62,-2.77 -8.61,-6.71l-78.7,-313.04c-1.42,-5.64 -6.22,-9.78 -12,-10.36l-98.29,-9.87c-9.92,-1 -17.81,8.15 -15.39,17.81l99.95,397.61c5.88,23.33 25.02,40.99 48.75,44.99c3.37,0.56 6.77,0.85 10.06,0.85l353.01,0c9.69,0 17.55,-7.86 17.55,-17.55l0,-103.72l-217.3,0c-0.45,0.04 -0.89,0.03 -1.33,0z" id="svg_11"/>
  </g>
 </g>
</svg>