<svg width="2048" height="2048" xmlns="http://www.w3.org/2000/svg" xmlns:svg="http://www.w3.org/2000/svg" data-name="Home energy by Yosua Bungara from Noun Project">
 <g class="layer">
  <title>Layer 1</title>
  <path clip-rule="evenodd" d="m1024,1907.2c-265.15,0 -480,-175.87 -480,-392.64c0,-99.26 45.7,-189.89 120,-259.01l0,-820.22c0,-162.62 161.28,-294.53 360,-294.53c198.72,0 360,131.9 360,294.53l0,820.22c74.5,69.12 120,159.74 120,259.01c0,216.77 -214.85,392.64 -480,392.64zm120,-561.6l0,-210.62l0,-503.42l0,-196.22c0,-54.34 -53.76,-98.3 -120,-98.3c-66.24,0 -120,43.97 -120,98.3l0,196.22l0,503.42l0,210.62c-71.42,33.98 -120,96.58 -120,168.96c0,108.48 107.52,196.22 240,196.22s240,-87.74 240,-196.22c0,-72.38 -48.58,-134.98 -120,-168.96zm-120,316.22c-99.26,0 -179.9,-66.05 -179.9,-147.26c0,-63.94 50.3,-117.89 120,-138.24l0,-502.66l120,0l0,502.66c69.7,20.35 120,74.3 120,138.24c0,81.22 -80.64,147.26 -180.1,147.26z" fill="black" fill-rule="evenodd" id="svg_1"/>
 </g>
</svg>