<svg width="2048" height="2048" xmlns="http://www.w3.org/2000/svg" xmlns:svg="http://www.w3.org/2000/svg" enable-background="new 0 0 100 100" version="1.1" xml:space="preserve">
 <g class="layer">
  <title>Partivla by Syawaluddin from Noun Project</title>
  <path d="m1201.42,648.99l-1030.25,0c-16.71,0 -27.85,-11.13 -27.85,-27.85s11.13,-27.85 27.85,-27.85l1030.25,0c100.24,0 183.78,-80.75 183.78,-183.78s-80.75,-183.78 -183.78,-183.78s-183.78,80.75 -183.78,183.78c0,16.71 -11.13,27.85 -27.85,27.85s-27.85,-11.13 -27.85,-27.85c0,-130.87 105.8,-239.47 239.47,-239.47s239.47,105.8 239.47,239.47c0,133.65 -108.59,239.47 -239.47,239.47zm164.28,225.54l-1030.25,0c-16.71,0 -27.85,11.13 -27.85,27.85s11.13,27.85 27.85,27.85l1030.25,0c100.24,0 183.78,80.75 183.78,183.78c0,36.2 -11.13,69.61 -27.85,97.45c-8.35,13.92 -5.57,30.63 8.35,38.98c5.57,2.78 11.13,5.57 13.92,5.57c8.35,0 19.5,-5.57 22.28,-13.92c25.06,-38.98 36.2,-83.54 36.2,-128.08c0,-130.87 -105.8,-239.47 -236.68,-239.47l0.01,0zm445.51,41.76c-77.97,-206.05 -331.35,-180.99 -331.35,-180.99l-1239.08,0c-16.71,0 -27.85,11.13 -27.85,27.85s11.13,27.85 27.85,27.85l1241.87,0c8.35,0 214.4,-19.5 275.66,144.8c5.57,11.13 13.92,16.71 25.06,16.71c2.78,0 5.57,0 11.13,-2.78c16.71,-2.78 22.28,-19.5 16.71,-33.41l0,-0.01z" id="svg_1"/>
  <path d="m815.02,1346.34l104.13,180.24a21.88,21.88 0 0 0 19.07,10.98l195.53,0l90.43,156.68l-87.17,113.27a21.97,21.97 0 1 0 35.15,26.36l89.28,-115.91l197.46,0a22.06,22.06 0 0 0 18.98,-11.34l104.13,-180.06a21.79,21.79 0 0 0 0,-21.97l-96.75,-167.05l86.91,-111.6a21.97,21.97 0 0 0 -35.15,-26.98l-88.93,114.33l-184.54,0l-98.07,-169.08a22.06,22.06 0 0 0 -19.07,-10.98l-196.58,0l-78.56,-115.65a21.97,21.97 0 1 0 -36.29,24.78l77.24,113.45l-97.19,168.46a21.79,21.79 0 0 0 0,22.06zm448.17,10.98l182.96,0l91.48,158.18l-91.48,158.18l-182.87,0l-91.13,-158.09l91.04,-158.27zm-312.31,-180.5l182.87,0l91.13,158.44l-91.48,158.18l-182.52,0l-91.48,-158.18l91.48,-158.44z" id="svg_2"/>
 </g>
</svg>